HIERARCHY
ROOT root
{
	OFFSET 0.000000 0.000000 0.000000
	CHANNELS 6 Xposition Yposition Zposition Zrotation Yrotation Xrotation
	JOINT lhip
	{
		OFFSET 0.058581 -0.082280 -0.017664
		CHANNELS 3 Zrotation Yrotation Xrotation
		JOINT lknee
		{
			OFFSET 0.043451 -0.386469 0.008037
			CHANNELS 3 Zrotation Yrotation Xrotation
			JOINT lankle
			{
				OFFSET -0.014790 -0.426874 -0.037428
				CHANNELS 3 Zrotation Yrotation Xrotation
				JOINT ltoe
				{
					OFFSET 0.041054 -0.060286 0.122042
					CHANNELS 3 Zrotation Yrotation Xrotation
					End Site
					{
						OFFSET 0.000000 0.000000 0.000000
					}
				}
			}
		}
	}
	JOINT rhip
	{
		OFFSET -0.060310 -0.090513 -0.013543
		CHANNELS 3 Zrotation Yrotation Xrotation
		JOINT rknee
		{
			OFFSET -0.043257 -0.383688 -0.004843
			CHANNELS 3 Zrotation Yrotation Xrotation
			JOINT rankle
			{
				OFFSET 0.019056 -0.420046 -0.034562
				CHANNELS 3 Zrotation Yrotation Xrotation
				JOINT rtoe
				{
					OFFSET -0.034840 -0.062106 0.130323
					CHANNELS 3 Zrotation Yrotation Xrotation
					End Site
					{
						OFFSET 0.000000 0.000000 0.000000
					}
				}
			}
		}
	}
	JOINT lowerback
	{
		OFFSET 0.004439 0.124404 -0.038385
		CHANNELS 3 Zrotation Yrotation Xrotation
		JOINT upperback
		{
			OFFSET 0.004488 0.137956 0.026820
			CHANNELS 3 Zrotation Yrotation Xrotation
			JOINT chest
			{
				OFFSET -0.002265 0.056032 0.002855
				CHANNELS 3 Zrotation Yrotation Xrotation
				JOINT lowerneck
				{
					OFFSET -0.013390 0.211636 -0.033468
					CHANNELS 3 Zrotation Yrotation Xrotation
					JOINT upperneck
					{
						OFFSET 0.010113 0.088937 0.050410
						CHANNELS 3 Zrotation Yrotation Xrotation
						End Site
						{
							OFFSET 0.000000 0.000000 0.000000
						}
					}
				}
				JOINT lclavicle
				{
					OFFSET 0.071702 0.114000 -0.018898
					CHANNELS 3 Zrotation Yrotation Xrotation
					JOINT lshoulder
					{
						OFFSET 0.122921 0.045205 -0.019046
						CHANNELS 3 Zrotation Yrotation Xrotation
						JOINT lelbow
						{
							OFFSET 0.255332 -0.015649 -0.022946
							CHANNELS 3 Zrotation Yrotation Xrotation
							JOINT lwrist
							{
								OFFSET 0.265709 0.012698 -0.007375
								CHANNELS 3 Zrotation Yrotation Xrotation
								End Site
								{
									OFFSET 0.000000 0.000000 0.000000
								}
							}
						}
					}
				}
				JOINT rclavicle
				{
					OFFSET -0.082954 0.112472 -0.023707
					CHANNELS 3 Zrotation Yrotation Xrotation
					JOINT rshoulder
					{
						OFFSET -0.113228 0.046853 -0.008472
						CHANNELS 3 Zrotation Yrotation Xrotation
						JOINT relbow
						{
							OFFSET -0.260127 -0.014369 -0.031269
							CHANNELS 3 Zrotation Yrotation Xrotation
							JOINT rwrist
							{
								OFFSET -0.269108 0.006794 -0.006027
								CHANNELS 3 Zrotation Yrotation Xrotation
								End Site
								{
									OFFSET 0.000000 0.000000 0.000000
								}
							}
						}
					}
				}
			}
		}
	}
}
MOTION
Frames: 12
Frame Time: 0.033333
0.368447 0.168555 0.990341 89.774447 -0.190244 91.876630 5.938164 4.045886 4.100297 -3.165462 -2.972405 -7.426451 0.150917 7.534209 -1.954911 0.000000 -0.000000 0.000000 -7.019834 -4.487607 1.322507 2.385718 -2.307959 -0.779483 4.638584 -4.873980 -6.041184 0.000000 -0.000000 0.000000 -5.045523 3.223185 -8.074940 2.495837 -2.615937 13.341861 -0.102502 0.865580 -5.343005 3.886647 2.110286 4.563449 7.174520 -3.126916 -7.834413 -27.884267 -1.886920 -1.071535 -53.431156 -4.412761 17.720315 1.831863 -19.968144 6.028477 -7.795762 -14.713300 10.552581 29.621397 3.986890 4.878479 54.255060 0.404047 13.003744 -11.108619 25.949229 -6.580866 0.782536 13.153273 1.417691 
0.367458 0.167191 0.989607 89.690947 0.021834 91.988627 6.437181 3.947153 3.902678 -3.482184 -2.854524 -7.289843 0.136797 7.517520 -1.924344 0.000000 -0.000000 0.000000 -6.572694 -4.153598 1.149553 2.196604 -2.266789 -0.764792 4.475914 -5.156524 -5.995514 0.000000 -0.000000 0.000000 -5.101599 3.157971 -7.603469 2.513379 -2.553686 12.154280 0.204151 0.921007 -4.670441 3.849832 2.047704 3.978841 6.938814 -3.142111 -6.970550 -27.383408 -1.965008 -0.998333 -54.069118 -4.485694 17.672436 1.996480 -19.769139 6.376589 -8.123660 -14.626832 10.393563 28.985685 3.998271 4.930461 55.162443 0.417345 13.185783 -11.551302 26.300489 -6.380839 0.919884 13.077726 0.719900 
0.367290 0.167278 0.989511 89.701052 0.010233 91.963765 6.462485 3.958873 3.870334 -3.534449 -2.891189 -7.174950 0.128294 7.487041 -1.961703 0.000000 -0.000000 0.000000 -6.593415 -4.128770 1.186647 2.194413 -2.255045 -0.776312 4.530992 -5.161314 -5.974583 0.000000 -0.000000 0.000000 -5.066091 3.080539 -7.594717 2.499466 -2.615670 12.157759 0.188560 0.935407 -4.639156 3.798156 2.106345 4.015058 6.817693 -3.087333 -6.805344 -27.432757 -2.022774 -0.970657 -54.073034 -4.537355 17.668121 2.040149 -19.615406 6.365440 -8.196996 -14.549030 10.477522 28.906307 4.007763 4.853314 55.401426 0.345558 13.251206 -11.670761 26.580218 -6.336932 0.981962 12.954574 0.593714 
0.367139 0.167265 0.989426 89.644442 0.026780 91.867086 6.470416 3.896837 3.845706 -3.510991 -2.983788 -6.907656 0.200456 7.538053 -2.124901 0.000000 -0.000000 0.000000 -6.590845 -4.108514 1.272688 2.195779 -2.192544 -0.761794 4.558910 -5.165667 -6.044984 0.000000 -0.000000 0.000000 -5.025567 3.061381 -7.577799 2.501871 -2.665116 12.194373 0.192648 0.928387 -4.589070 3.784492 2.185311 4.134719 6.720233 -3.060204 -6.615341 -27.511285 -2.035724 -0.977844 -54.021669 -4.594152 17.702121 2.064420 -19.609571 6.331212 -8.227429 -14.520706 10.393096 28.855943 3.975184 4.821189 55.492269 0.323029 13.333925 -11.547976 26.667897 -6.238572 1.486386 12.703070 0.231696 
0.367164 0.167268 0.989366 89.583293 0.016955 91.854345 6.442777 3.909025 3.841034 -3.487713 -2.982647 -6.827183 0.181281 7.540972 -2.169719 0.000000 -0.000000 0.000000 -6.619914 -4.096727 1.279473 2.206280 -2.184028 -0.756719 4.594069 -5.124514 -6.064855 0.000000 -0.000000 0.000000 -5.042909 3.076794 -7.618969 2.504792 -2.656635 12.252142 0.194023 0.928622 -4.587876 3.817959 2.239326 4.196449 6.722618 -3.060414 -6.606443 -27.510551 -2.011806 -0.999912 -54.074651 -4.620725 17.687648 2.128450 -19.648571 6.378265 -8.172813 -14.555560 10.500496 28.913611 3.951265 4.840972 55.452079 0.385263 13.295084 -11.578277 26.647042 -6.229275 1.196512 12.784055 0.451973 
0.367075 0.167100 0.989281 89.432070 0.043014 91.794108 6.458790 3.989438 3.937365 -3.473307 -2.933346 -6.837095 0.160143 7.617897 -2.135976 0.000000 -0.000000 0.000000 -6.602516 -4.031724 1.287831 2.207994 -2.079845 -0.759552 4.643731 -5.094194 -6.080346 0.000000 -0.000000 0.000000 -5.057610 3.118734 -7.569882 2.537539 -2.576622 12.095342 0.270731 0.924185 -4.416425 3.818345 2.310492 4.207173 6.694322 -3.012790 -6.620616 -27.397118 -1.942172 -1.215916 -54.503496 -5.074220 17.509368 2.145509 -18.876163 6.442706 -8.447907 -14.675128 10.707963 28.800649 3.866477 4.718342 55.605851 0.427962 13.347289 -11.475155 26.395425 -5.999679 1.574514 12.699110 0.326169 
0.366997 0.166883 0.989250 89.331270 0.062397 91.714512 6.484353 4.062875 4.049575 -3.499736 -2.834711 -6.845970 0.139734 7.634944 -2.124253 0.000000 -0.000000 0.000000 -6.594088 -4.002450 1.343879 2.217569 -2.027939 -0.762925 4.671559 -5.042031 -6.095042 0.000000 -0.000000 0.000000 -5.088254 3.124499 -7.508202 2.589140 -2.535860 12.070481 0.303059 0.895804 -4.348071 3.902757 2.415020 4.158219 6.643613 -2.970142 -6.536386 -27.474224 -1.873595 -1.307823 -54.442961 -5.167072 17.436776 2.002270 -18.894785 6.601872 -8.309685 -14.760803 10.901426 28.959506 3.702103 4.581188 55.481678 0.516730 13.281880 -11.510718 26.300242 -5.871229 1.142464 12.844120 0.822564 
0.367029 0.166681 0.989204 89.254483 0.083908 91.680964 6.501031 4.090893 4.123551 -3.485579 -2.793525 -6.883128 0.162294 7.658067 -2.133189 0.000000 -0.000000 0.000000 -6.594548 -3.976319 1.387122 2.256708 -2.002869 -0.826073 4.728718 -5.030918 -6.090092 0.000000 -0.000000 0.000000 -5.117047 3.097671 -7.484359 2.629755 -2.511770 11.969875 0.335870 0.887353 -4.241094 3.946704 2.467583 4.114602 6.577104 -2.894806 -6.484870 -27.516103 -1.791015 -1.383360 -54.429987 -5.222091 17.398050 1.916211 -18.937560 6.732717 -8.383026 -14.765080 10.888773 29.016484 3.448292 4.476585 55.446545 0.582882 13.241245 -11.448882 26.268942 -5.655385 1.389010 12.685504 0.857854 
0.367146 0.166497 0.989142 89.235173 0.109224 91.679024 6.523144 4.091934 4.159353 -3.474817 -2.781331 -6.922267 0.148172 7.657789 -2.139350 0.000000 -0.000000 0.000000 -6.581363 -3.954863 1.396845 2.279459 -1.969588 -0.843223 4.767373 -5.031331 -6.115236 0.000000 -0.000000 0.000000 -5.128462 3.038405 -7.568101 2.661908 -2.554548 11.947949 0.352115 0.840789 -4.135963 3.967157 2.545795 4.089069 6.532395 -2.816247 -6.452372 -27.572163 -1.673761 -1.455449 -54.394226 -5.294534 17.352251 1.822737 -18.929644 6.860324 -8.482126 -14.806318 10.856321 29.130525 3.123038 4.287869 55.315807 0.695601 13.190553 -11.310952 26.153026 -5.318291 1.699746 12.511477 0.895545 
0.367354 0.166426 0.989150 89.221802 0.092535 91.742236 6.498082 4.097798 4.166904 -3.484465 -2.764646 -6.996736 0.078964 7.626545 -2.143698 0.000000 -0.000000 0.000000 -6.637129 -3.940885 1.408282 2.337035 -2.017794 -0.952528 4.793509 -5.006355 -6.085902 0.000000 -0.000000 0.000000 -5.120125 3.022950 -7.847635 2.618509 -2.591842 12.312707 0.317437 0.856198 -4.308097 4.094584 2.650568 4.264187 6.514195 -2.802230 -6.692310 -27.517674 -1.868780 -1.363839 -54.459092 -5.207284 17.373545 1.905759 -18.944450 6.480416 -8.467832 -14.795929 11.082791 29.001506 3.644536 4.657108 55.623219 0.485504 13.225703 -11.609787 25.857332 -6.048255 1.203960 12.786167 0.929736 
0.367518 0.166328 0.989099 89.265278 0.107731 91.705285 6.521361 4.111360 4.172203 -3.494682 -2.831441 -6.934181 0.174198 7.547289 -2.127799 0.000000 -0.000000 0.000000 -6.660973 -4.041946 1.538111 2.390492 -1.928398 -1.096641 4.789476 -5.021913 -6.008531 0.000000 -0.000000 0.000000 -5.141986 2.998440 -7.885808 2.703313 -2.697305 12.334950 0.333410 0.740795 -4.203556 4.066377 2.644653 4.209287 6.386248 -2.649859 -6.699606 -27.697787 -1.778928 -1.422471 -54.363022 -5.313144 17.322946 1.822084 -19.081108 6.638552 -8.474010 -14.313437 10.825289 29.125416 3.096271 4.305019 55.364027 0.684693 13.142677 -11.407375 25.915954 -5.450908 1.855963 12.409728 1.140048 
0.367567 0.166258 0.989100 89.267942 0.098930 91.703257 6.498438 4.086479 4.156599 -3.481062 -2.865130 -6.888870 0.175066 7.551015 -2.174119 0.000000 -0.000000 0.000000 -6.657957 -4.030959 1.549051 2.351717 -1.967785 -1.108841 4.809393 -5.050371 -6.020228 0.000000 -0.000000 0.000000 -5.141129 2.971104 -7.935770 2.698594 -2.758612 12.468248 0.331871 0.764296 -4.244051 4.011367 2.674045 4.200922 6.465046 -2.625268 -6.755027 -27.707753 -1.852415 -1.390332 -54.380398 -5.385701 17.233731 1.825683 -18.814061 6.605435 -8.387997 -14.677760 11.057337 29.108885 3.118625 4.375542 55.361279 0.682484 13.004586 -11.317754 25.844765 -5.346828 1.514714 12.624371 1.237555 
